# xmcd
#
# Track frame offsets:
#	150
#	27450
#	48124
#	68897
#	89788
#	103979
#	127286
#	149951
#	171878
#	188833
#	207329
#	220703
#	237605
#	259558
#	272908
#	291609
#	310480
#	327238
#
# Disc length: 4596 seconds
#
# Revision: 0
# Processed by: cddbd v1.5.1PL0 Copyright (c) Steve Scherf et al.
# Submitted via: dBpowerAMP V4.0
#
DISCID=3611f212
DTITLE=Neal Casal - Leaving traces - songs 1994-2004
DYEAR=2004
DGENRE=country
TTITLE0=free to go
TTITLE1=maybe california
TTITLE2=real country dark
TTITLE3=st cloud
TTITLE4=fremont row
TTITLE5=eddy and diamonds
TTITLE6=too much to ask
TTITLE7=oceanview
TTITLE8=just getting by
TTITLE9=all the luck in the world
TTITLE10=reason
TTITLE11=today i'm gonna bleed
TTITLE12=free light of day
TTITLE13=me and queen sylvia
TTITLE14=lucky stars
TTITLE15=fierce little bird
TTITLE16=it's not enough
TTITLE17=delaware station
EXTD=This album can be bought at your local record store.
EXTT0=
EXTT1=
EXTT2=
EXTT3=
EXTT4=
EXTT5=
EXTT6=
EXTT7=
EXTT8=
EXTT9=
EXTT10=
EXTT11=
EXTT12=
EXTT13=
EXTT14=
EXTT15=
EXTT16=
EXTT17=
PLAYORDER=
